<?xml version="1.0" encoding="utf-8"?>
<!-- Generator: Adobe Illustrator 27.0.0, SVG Export Plug-In . SVG Version: 6.00 Build 0)  -->
<svg version="1.1" id="Layer_1" xmlns="http://www.w3.org/2000/svg" xmlns:xlink="http://www.w3.org/1999/xlink" x="0px" y="0px"
	 viewBox="0 0 674.7 675.3" style="enable-background:new 0 0 674.7 675.3;" xml:space="preserve">
<style type="text/css">
	.st0{fill:#2454FF;}
</style>
<path class="st0" d="M431.6,376.1c-3.1,19.1-7.8,26.4-17.3,36.2c15.3,1.1,29.1,1.3,39.9,1.3c29.1,0,50-8.3,68-25.6
	c20.6-19.9,31.9-44.4,31.9-69.5c0-35.3-20.6-56.7-58.9-57.5c-8.3-0.2-16.6-0.2-24.7-0.1c0.3-2,0.6-4,1-6.1c0.7-4.2,1.5-8.1,2.4-11.6
	c3.7,0.6,7.3,1,11,1c21.3,0,36.9-10.4,36.9-23.1c0-7.6-6-12.4-18-12.4c-16.2,0-30.4,8.7-41,24.8c-8.2-2.8-16.7-6.9-25.4-11.7
	c4.6-7,7.1-15.2,7.1-23.9c0-15.8-9.7-34.5-26.7-50c28.7,0.1,49.1,12.7,49.1,29.5c0,6.2-3.1,9.4-8.9,9.4c-1.5,0-3-0.3-4.4-0.7
	l-0.4,0.9c4.4,3.4,10.3,5.4,16.3,5.4c9.5,0,15.6-5.1,15.6-13c0-19.9-32.3-37.9-67.6-37.9c-2.4,0-4.7,0.1-7.1,0.2
	c-19.3-14.7-45.9-25.3-77.3-25.3c-32.4,0-53.8,12.6-53.8,31.3c0,0.5,0,0.9,0,1.4c-1.2,0-2.4-0.1-3.6-0.1c-47.9,0-77.7,18.9-77.7,46
	c0,2.2,0.2,4.3,0.6,6.3c-17.5,12.7-30.9,33.5-37.1,60.1c-13.8,1-23.6,5-34.8,14.2c-11.2,9.1-15.8,16.1-15.8,23.3
	c0,5.9,2.3,10.2,7.6,13.8c5-4.6,10.6-8.6,16.9-12c-4.4-2.8-6.7-6.9-6.7-11.6c0-7.5,5.9-11.5,16.7-12c4.3-0.2,8.8-0.3,13.4-0.3
	c-4.5,31.1-9.8,67.5-15,99c-3.3,20.3-6.9,27.1-16.2,37.1c9.1,0.4,20,0.9,28.7,0.9c9.3,0,13.8-1.8,19.1-6.7
	c4.5-4.1,8.9-9.1,13.3-14.9l-0.9-0.9c-3.3,3.1-7.1,4.9-14.7,4.9c-2.8,0-5.9-0.1-9-0.1c1.9-17.1,4-34.2,6.3-51.3
	c6.4,0.4,12.8,0.6,19.1,0.5c11,22.5,23,45.3,38,71.6c4.6,8,9.5,15.5,14.7,22.5c-36,9.1-57.6,26.8-57.6,44.8s19.5,32,56.9,32
	c3.8,0,7.6-0.2,11.5-0.6c9.8,23.5,45.9,42.8,88.7,42.8c48.8,0,83.8-20.8,87.2-46.8c36.9-7.7,57.8-26.3,57.8-43.1
	c0-11.8-10.2-23.1-36.9-23.1c-17,0-35.1,5.1-54.1,12.4C373.2,443.2,340,433,296.8,433c-11.8,0-22.8,0.8-33.1,2.2
	c-1-1.6-2-3.2-2.9-4.8c-17.4-29.9-34-62.7-49.6-95.9c20.4-14.6,30-29.8,30-44.5c0-17.7-13.2-28.5-36.5-28.9
	c-7.3-0.1-14.6-0.2-21.7-0.1c0.5-3.2,1.1-6.4,1.6-9.6c3.1-18.2,8.6-31.7,16.6-41c7.8,16.7,28,28.5,50.7,28.5
	c16.8,0,35.1-6.5,53.8-19.7c22.6,12.5,47.7,25.1,81.7,25.1c20.6,0,36.1-6.8,45.7-17.2c8.8,5,17.5,9.3,26,12.3
	c-3.5,6.5-6.6,13.9-9.1,22.2c-11.5,1.4-21.1,6.2-31.3,14.9c-11.5,9.8-15.1,15.7-15.1,23.8c0,4.3,2.9,9.5,6.9,12.4
	c5.1-4.7,11-8.8,17.8-12.4c-4.3-3.1-6.7-7.3-6.7-11.6c0-7.1,5.5-11.1,16.2-11.6c2.9-0.1,5.7-0.2,8.5-0.3c-0.7,3.6-1.3,7.3-1.8,11.2
	C441.1,313,436.7,344.6,431.6,376.1z M245.2,507.2c-23.5,0-35.5-11.1-35.5-25.3c0-15.1,13.1-28.1,37.9-35.4
	c7.8,9.6,16.2,18.2,25.2,25.9c-13.9,7.3-22.6,18.2-22.6,30.6c0,1.4,0.1,2.7,0.3,4.1C248.7,507.1,246.9,507.2,245.2,507.2z
	 M406.3,504.1c0,1.1-0.1,2.3-0.2,3.4c-4.8,0.4-10,0.6-15.6,0.6c-4.3,0-8.6-0.1-12.9-0.5c0-0.4,0-0.8,0-1.3
	c0-10.5-5.1-20.1-13.8-27.5c8.8-3.8,17.4-7.4,25.6-10.6C400.9,479,406.3,491.8,406.3,504.1z M360.3,499.6c0,1.8-0.2,3.6-0.7,5.2
	c-10.8-2.4-21.3-6-31.3-10.9c8.6-3.5,17.2-7.2,25.6-10.9C358,487.8,360.3,493.4,360.3,499.6z M320.5,489.9
	c-8.5-4.8-16.6-10.4-24.2-16.8c5.9-2.3,12.9-3.6,20.7-3.6c12.8,0,23.7,3.2,31.3,8.6C339.1,482.1,329.8,486.1,320.5,489.9z
	 M306.4,495.1c-10.5,3.7-21,6.8-31.6,8.9c0-0.4,0-0.9,0-1.3c0-8.6,3.2-16.1,8.9-21.7C290.9,486.3,298.5,491,306.4,495.1z
	 M341.6,551.2c-35.2,0-60.7-16-65.9-39.5c13-3,26.1-7.4,39.2-12.4c13,5.9,26.7,10.2,41,12.8c-4,4.8-10.5,7.6-18.8,7.6
	c-8.4,0-14.9-2.7-19.1-7.3l-1.1,0.9c7.3,11.2,17.8,17.1,31.3,17.1c13,0,23.5-6.5,27.6-15.7c4.8,0.4,9.7,0.6,14.6,0.6
	s9.7-0.2,14.2-0.5C398.5,535.9,373.8,551.2,341.6,551.2z M438,456.1c16.9,0,24,7.6,24,18.2c0,12.3-8.9,23.9-33.2,29.7
	c-1.1-13.9-9.8-28.6-25.6-40.9C416,458.8,427.8,456.1,438,456.1z M296.8,440.1c40.2-0.2,68.5,9.2,86.3,22.6
	c-8.4,3.5-17,7.4-25.7,11.3c-11-7-25.7-11.2-42-11.2c-9.6,0-18.6,1.2-26.7,3.4c-7.4-7.2-14.3-15.3-20.5-24.1
	C276.9,440.9,286.4,440.2,296.8,440.1z M191.5,277c18.2,0.4,27.5,9,27.5,25.3c0,16.6-10.1,27.1-26,27.1c-6.9,0-13.7-0.3-20.6-0.9
	c2.5-17.3,5.2-34.5,8-51.7C184,276.9,187.7,277,191.5,277z M426.9,190.2c0,7.4-2.1,14.9-6.7,21.4c-8.2-5.2-16.7-10.7-25.4-16.4
	c5.5-4.9,8.5-11.3,8.5-18.8c0-10-4.9-18.5-13.2-24.5c5.3-1.9,10.8-3.1,16.7-3.7C419.7,160.2,426.9,175.3,426.9,190.2z M300.4,157.5
	c11.8,2.2,23.3,6,34.4,10.8c-6.4,4.4-12.5,9.4-18.5,15l-0.4,0.4C306.8,176.8,300.8,167.6,300.4,157.5z M348.3,181.1
	c1.5-1.4,2.9-2.8,4.4-4.1c8,4.2,15.7,8.9,23.4,13.6c-5.1,3.6-12.4,5.6-21.5,5.6c-6.6,0-13.1-1-19.2-2.8L348.3,181.1z M357.5,172.7
	c7.4-6.5,14.2-11.5,20.9-15.3c4,4.4,6.3,9.9,6.3,16c0,5-1.4,9.4-4,12.9C373.1,181.5,365.4,176.9,357.5,172.7z M342.3,124.7
	c23.3,0,43,7,57.6,17.8c-6.6,0.9-13.3,2.3-19.9,4.1c-6.3-2.4-13.7-3.7-21.8-3.7c-6.8,0-12.1,0.8-17.1,2.4l0.2,1.3
	c2.3-0.3,4.7-0.4,7.3-0.4c7.6,0,14.4,1.5,20,4.1c-9.6,3.6-19,8.3-28,14c-12.8-5.8-26.2-10.4-40-13
	C303.1,134.8,318.4,124.7,342.3,124.7z M277.7,155.3c0.9,0,1.7,0,2.6,0c3.7,12.1,15.5,24,30.6,33.1L294,204.2
	c-16.8-9.1-33.6-17-53.6-17c-7.3,0-14.4,1.1-21.2,3.3C224.7,168.4,246.3,155.3,277.7,155.3z M244.8,231.3
	c-15.3,0-27.1-10.9-27.1-28.7c0-1.5,0.1-2.9,0.2-4.4c6.4-2.6,13.5-3.8,21.6-3.8c17.5,0,33,6.7,48.9,15.1
	C269.9,226.2,258.7,231.3,244.8,231.3z M370.5,231.7c-22.6,0-41-8.1-58.3-17.4c4.5-3.5,9-7.4,13.5-11.7l5-4.7
	c11.3,4.2,23.2,6.7,34.4,6.7c9.8,0,18-2,24.3-5.5c9.1,6,18,11.9,26.8,17.5C407.1,225.5,392.4,231.7,370.5,231.7z M497.4,216.4
	c5.3,0,8.7,3.3,8.7,8.2c0,7.6-8,12.9-20.9,12.9c-3.1,0-6.3-0.3-9.5-0.8C480.5,222.9,487.7,216.4,497.4,216.4z M482.2,277
	c33.1,1.2,49.5,19.1,49.5,53.1c0,39.3-21.1,64.9-55.3,65.3c-8.2,0.4-16.4,0-24.6-1.1c4.8-39.4,10.1-78.6,16.1-117.7
	C472.7,276.7,477.4,276.9,482.2,277z M304.1,296.6c-5.7,33.1-10.6,66.1-14.9,99.4c3.3,0.1,6.6,0.2,9.6,0.2c7.6,0,11.3-1.8,14.7-4.9
	l0.9,0.9c-4.4,5.8-8.8,10.8-13.3,14.9c-5.3,4.8-9.8,6.7-19.1,6.7c-8.7,0-17.1-0.4-25.5-0.9c6.2-6.9,9.6-14.2,12.4-30.7
	c5.9-34.3,11-68.8,15.3-103.5c-3.1-0.1-6.2-0.2-9.3-0.2c-6.9,0-10.8,1.3-14.4,4.7l-1.1-0.9c3.9-4.9,8-9.6,12.6-13.9
	c5.8-5.5,10.8-7.4,21.5-7.4c9.1,0,18.2,0.4,27.5,0.9C311,271,307.1,279.2,304.1,296.6z M351.9,294.4c0,7.1,2.6,12.6,10.6,21.2
	l18.9,20.3c9.6,10.3,13.4,18.9,13.4,30c0,24.1-26,48.9-52.6,48.9c-8.9,0-16-2.2-21.3-5.3c7.1-8.9,12-17.8,15.8-28.4h1.1
	c0.4,10.4,7.3,16.4,18.9,16.4c12.1,0,19.8-7.5,19.8-19.2c0-7.3-2.6-13.1-10.4-21.4L350.4,340c-12.2-13.1-16.6-22.1-16.6-33.3
	c0-25.8,27.9-47.4,58.2-46.9c8.5,0.2,12.9,2.3,12.9,6c0,2.4-0.7,3.8-3.8,7.3c-8.7,10.2-10,12.9-10.7,19.3h-1.3
	c0-9.1-5.6-15.3-17.8-15.3C359.3,277,351.9,283.8,351.9,294.4z M307.6,608.6c-14.3-1.6-23.9,5.6-25.1,16.3c-0.7,6.5,1.5,11.8,6.9,16
	c-8,2.9-11.6,7.4-12.1,12.2c-1,9.1,5.2,17.7,21.5,19.5c15.6,1.7,26-5.7,27.2-16.8c0.8-7.1-2.5-13.2-9.9-17.3
	c7.3-2.2,11-6.4,11.5-11.7C328.7,617.9,322,610.2,307.6,608.6z M312.1,657.6c-0.5,4.5-4.4,7.2-10.9,6.5c-7.6-0.8-10.9-5.7-10.2-11.4
	c0.4-3.5,1.5-5.9,4-8.5l0.5,0.2l10.2,4.7C311.1,651.7,312.4,654.3,312.1,657.6z M314.9,627.7c-0.3,3-1.4,5.7-3.9,8.3l-7.9-3.7
	c-5.7-2.6-7.1-5.1-6.7-8.8c0.5-4.4,4-7,9.4-6.4C311.8,617.8,315.6,621.5,314.9,627.7z M611.7,532.3c-6.6,6.6-12.3,14-17.1,22
	c-1.1-6.8-3.2-9.6-11.5-16.5c-6.6-5.6-13.4-10.9-20.3-16.2c-7.6-5.8-10.3-7-17.3-7.2c6.1-5.8,11.2-12.4,15.3-19.8
	c1.9,6.8,3.8,9,11.3,15c6.8,5.4,13.6,10.6,20.7,15.6C601.6,531.6,604.9,533,611.7,532.3z M661.7,427.6c-2.4,5.3-4.4,10.7-6.5,16.6
	c-3.3,8.9-6.4,18.5-9.5,28.7c-4.6-3.5-9.8-6.3-15.9-7.5l0.1-1.4c6.3-0.8,9.6-3.7,14.8-19.1c-4.1-1.8-8.6-3.5-15.2-5.9
	c-4.4,12.3-4.8,16-3.9,21.4c-4.7-3-9.8-5-15.3-6.1c3.9-2.8,6.5-5.9,10.9-18.2c-6.6-2.2-10.8-3.4-14.5-4.3c-7.2,18-7,20.6-2.7,24.9
	l-0.8,1.1c-5.3-3.1-10.2-6.6-14.9-10.5c2.7-5.9,5.3-11.9,7.5-18c2.8-7.7,4.6-14.6,6.1-21.7c3.2,5.4,5.6,7.6,15.8,11.3
	c9.2,3.4,17.4,6,25.7,8.3C653.3,430.3,656.8,430,661.7,427.6z M438.9,614.8l13.2,6l-6,13.2l-13.2-6L438.9,614.8z M567.3,538.8
	c13.1,14.1,11.6,33.9-4.7,49c-6.2,5.8-11,8.1-14.9,11.8c-1.2,1.1-2.1,2.2-3.1,4c-2.1-6.8-5-11.7-10.9-17.2l0.7-0.9
	c6.9,3.1,14.7,2.3,22-4.5c8.8-8.2,9-19.1-0.4-29c-11.2-11.8-23.5-12-31.7-4.3c-1.2,1.1-2.1,2.2-2.9,3.5c1.6,2,3.4,3.9,5.2,5.8
	c5.4,5.8,7,6.4,14.6,8c-8.5,5.5-14.2,11.1-17.8,16.4c-1.4-5.8-3.2-9.3-10.4-17c-2.5-2.7-5.3-5-8.5-6.8c4.1-5.6,8.7-11.6,14.1-16.6
	C535.3,525.6,554.3,524.8,567.3,538.8z M402.1,604.3c6.8-1.6,13.7-3.4,20-6.2c-2,7.7-2.5,12.9-3.1,23.3c-0.4,7.6-0.5,15.2-1.2,24.6
	c-0.9,13.6-6.2,20-18.7,23c-2.8,0.6-5.6,0.9-8.4,1.1l-0.2-1.3c6.8-1.8,10.5-5.9,12.2-20.7c1-8.7,1.2-21.6,0.8-34.8
	c-12.4,3.6-15.4,6.7-17.8,14.1l-1.3-0.2c0.1-8.3-0.5-13.6-2-19.9C389.3,606.8,395.6,605.9,402.1,604.3z M356.5,611.4
	c7-0.4,14.1-1.1,20.7-2.7c-3.2,7.2-4.7,12.2-6.9,22.4c-1.7,7.4-3.1,14.9-5.3,24.1c-3.2,13.2-9.4,18.7-22.3,19.5
	c-2.8,0.2-5.7-0.1-8.5-0.3V673c7-0.6,11.4-4.1,15.5-18.4c2.4-8.4,4.8-21.1,6.6-34.2c-12.8,1.5-16.3,4-19.9,10.9l-1.2-0.4
	c1.5-8.1,1.7-13.5,1.3-20C343.4,611.6,349.7,611.8,356.5,611.4z M535.9,607.9l0.8,1.4c-6.8,3.5-12.2,7.6-16.6,11.6
	c-15.7-4.7-31.4-8.9-47.3-12.7c2.3,4.3,4.6,8.4,6.9,12.6c4.6,8.1,8.3,11.2,16.8,13.2c-9.7,3.5-16.2,6.9-22,11.3
	c0.3-5.8-0.9-10.6-5.5-19.9c-6.4-12.8-12.8-25.5-19.5-38.2l1.2-1.1c18.7,5.6,37.7,10.7,56.8,15.2c-3.2-5.5-6.6-10.8-10.1-16.1
	c-6.7-10.4-11.2-12.4-18.1-14.1c8.5-3.9,14.9-8.1,21.4-13.3c-0.9,6.6-0.2,11.1,5.7,20.9c3.8,6.2,7.8,12.4,11.6,18
	C524.7,607.1,529.6,609.7,535.9,607.9z M628,507.7c-3.2,5.6-5.7,7.9-7.5,11.1c-1.2,2.2-1.6,3.5-2,5.6c-3-3.6-8.2-8-15.5-11.6
	l0.4-1.1c6.9,1.1,12.5-1.8,16.4-8.7c3.5-6.1,2.5-10.5-1-12.5c-2.8-1.6-5.3-1.3-9.5,2.3l-7,6c-8.2,7-14.9,7.6-22.3,3.4
	c-9.7-5.6-12.7-18-4.6-32.1c3.2-5.6,5.8-7.6,10.4-16c3.8,5.3,8.7,8.8,15.9,11.6l-0.4,1.2c-8.8-1.2-14.6,2.3-18.5,9.2
	c-3.4,5.9-2.2,10,1.4,12.1c2.8,1.6,5.5,1.2,9.2-2l7.2-6.2c8.2-7.1,15.1-7.5,22.5-3.3C632.7,481.9,636.1,493.6,628,507.7z
	 M12.4,246.1c1.7-6.3,3.5-9.1,4.4-12.6c0.7-2.4,0.7-3.8,0.5-5.9c3.9,2.7,10,5.7,17.9,7.2l-0.1,1.2c-6.9,0.7-11.6,4.9-13.7,12.6
	c-1.8,6.8,0.2,10.8,4.2,11.8c3.1,0.8,5.5-0.1,8.6-4.6l5.2-7.6c6.1-8.9,12.5-11.1,20.7-8.9c10.8,2.9,16.8,14.2,12.6,29.8
	c-1.7,6.3-3.7,8.8-6,18.2c-5-4.1-10.7-6.2-18.3-7.2l0.1-1.3c8.8-1.1,13.5-5.9,15.6-13.6c1.8-6.5-0.4-10.2-4.5-11.3
	c-3.1-0.8-5.6,0.2-8.4,4.3l-5.4,7.9c-6.1,9-12.7,11.1-20.9,8.9C14.5,272.2,8.2,261.7,12.4,246.1z M643.3,319.3l10.3,10.3l-10.3,10.3
	L633,329.6L643.3,319.3z M648.5,267c10.1-2.3,13-4.3,16.2-8.7c0.4,5.8,1.3,11.5,2.3,17.7c1.4,9.4,3.6,20,6,30.5
	c-5.7-0.9-11.8-0.6-17.8,1.2l-0.6-1.3c4.8-3.6,6.4-8.1,3.6-24.6c-6.5,0.6-12.9,1.5-19.2,2.5c2.1,14,3.6,17.4,7.1,21.8
	c-5.6-0.4-11,0.3-16.4,2c2.3-5.6,2.7-9.6,0.6-22.3c-1.6,0.3-3.2,0.6-4.8,0.9c-8,1.7-12.5,4-18,9c-0.6-8.9-2.1-17.5-4.8-26.1
	c5.4,3.2,8.6,3.9,19.3,2.3C631.6,270.6,640.1,268.9,648.5,267z M22.7,216.6c4.8-8.6,8.5-17.5,10.9-25.8c2.6,6.1,5.1,9.1,14.3,13.7
	c7.4,3.6,14.9,6.9,22.5,10.1c2.7,1.2,5.5,2.2,8.4,3c6.4-11.8,6.2-16.1,1.6-21.5l0.9-1c5.1,4,9.8,8.2,14.1,12.9
	c-2.9,5.5-5.8,11.1-8.5,16.8c-3,6.4-4.8,12-6.5,17.8c-3.3-6.5-5.7-9.1-15-13.3c-7.6-3.4-15.3-6.8-23.1-9.8
	C32.1,215.6,28.4,215.1,22.7,216.6z M591.5,238.3c7.3,19,24.6,26.8,42.4,19.9c17.9-6.9,25.1-23.3,17.8-42.3s-24.6-26.8-42.4-19.9
	C591.4,202.9,584.1,219.3,591.5,238.3z M642.8,218.3c3.4,8.7-1.3,18.5-16.9,24.5c-14,5.4-22.4,1.1-25.5-7
	c-3.4-8.8,1.3-18.5,16.9-24.5C631.3,205.9,639.6,210.1,642.8,218.3z M22.9,394.4c-10.2,1.8-13.2,3.7-16.6,7.9
	c-0.1-5.9-0.8-11.6-1.5-17.8c-1-10-2.5-20.6-4.3-31.8c6,1.2,11.9,1.3,17.7-0.3l0.6,1.3c-5.4,3.5-7.3,6.9-4.8,25.5
	c4.5-0.2,9.2-0.6,16.3-1.4c-1.4-14.3-2.9-18.1-6.1-22.6c5.5,0.6,11,0.2,16.5-1.2c-2.5,5.2-3.1,9.3-1.6,22.8c6.9-0.9,11.3-1.7,15-2.5
	c-1.3-23.8-3.1-26.8-9.3-29.7l0.4-1.3c6.6,0.8,12.9,2.1,18.2,4c0.2,8.2,0.6,16.3,1.5,24.4s2.3,15.2,4.1,22.1
	c-5.3-3.4-8.4-4.4-19.2-3.2C39.9,391.5,31.3,392.8,22.9,394.4z M655.4,354.4c-8.8-0.5-17.5-1.3-26.2-2.6
	c-10.5-1.6-13.5-3.3-17.7-7.9c0.2,5.2,0,9.4-0.6,13.6c-0.9,6.1-2.1,9.9-2.9,15.7c-3,22.3,9.6,37.6,27.6,40.2
	c16.8,2.4,31.3-6,34.4-28.3c1-7.3,0.6-12,2.3-23.8c0.6-3.9,1.2-6.9,1.8-10.4C670,353.8,666.1,355,655.4,354.4z M661.6,380.4
	c-1.7,11.8-11.8,17.5-25.2,15.6c-13.3-1.9-21.3-9.9-19.9-20.2c0.5-3.2,1.8-6.5,4.3-9.2c13.8,1,27.7,2.7,41.4,5
	C662.1,374.5,662,377.4,661.6,380.4z M561.5,148.8c6.8-4.8,13.6-9.8,20.1-15.1c8.5-6.8,10.8-9.7,12.3-15.5
	c5.1,8.5,10.8,16.1,16.8,22.4c-6.2-0.9-10.1-0.4-19.1,5.4c-7.1,4.8-14.2,9.7-21,15c-2.4,1.9-4.1,3.4-5.9,5.1
	c10.2,16.5,13.8,18.1,20.3,17.4l0.4,1.4c-5.9,2-12,3.7-18,4.7c-4-6.5-8.5-13.6-12.9-20.1c-4-5.8-7.9-10.2-12.1-14.6
	C549.7,155.5,553.1,154.7,561.5,148.8z M597.6,167.1l14.1,3.4l-3.4,14.1l-14.1-3.4L597.6,167.1z M382.9,22.5
	c1.7-10.1,1.4-14.4-1.4-19.8c8.9,2.8,18.6,4.9,26.4,5.5c-5,2.9-7,6.9-9.4,16.9c-0.6,2.3-1.2,4.8-1.6,7.2c9,2,18.2,4.2,27.2,6.6
	c0.7-2.3,1.2-4.8,1.8-7.1c2.4-10.1,2.5-14.5-0.6-19.4c7.2,3,16.7,5.6,26,7.2c-4.9,3.5-7.2,7.2-10.3,17c-2.5,7.7-4.8,15.4-7,23.8
	c-2.5,9.9-2.3,13.3,0.7,20c-8.4-3.4-17-5.8-26.3-7.2c5.9-3.8,8.2-7.2,10.9-16.8c0.8-2.9,1.6-5.7,2.4-8.5c-8.9-2.5-17.8-4.6-26.8-6.6
	c-0.6,2.9-1.2,5.8-1.8,8.8c-2,9.8-1.5,13.9,2,20c-9-3-17.7-4.8-26.7-5.6c5.7-4.5,7.5-7.5,9.8-17.4C380.2,38.4,381.6,30.5,382.9,22.5
	z M463.4,95.3c18,9.5,36.1,4,45-12.9c8.9-17,3.6-34.1-14.4-43.6s-36.1-4-45,12.9C440.1,68.7,445.4,85.8,463.4,95.3z M465.1,58
	c7-13.3,16-15.6,23.8-11.5c8.3,4.3,11.2,14.8,3.4,29.6c-7,13.3-16.1,15.6-23.8,11.5C460.2,83.2,457.3,72.8,465.1,58z M166.8,67.7
	c4.7,7.4,9.1,15,13,22.9c4.8,9.5,5.1,12.9,3.8,19.1c4.1-3.1,7.7-5.5,11.4-7.4c5.5-2.8,9.3-4,14.5-6.7c19.9-10.4,25.1-29.6,16.8-45.8
	c-7.8-15.1-23-22-43-11.7c-6.5,3.4-10.2,6.5-20.8,11.9c-3.5,1.8-6.3,3.1-9.5,4.5C157.9,56.2,161.1,58.6,166.8,67.7z M184.5,47.6
	c10.6-5.5,21.1-0.5,27.3,11.5c6.1,11.9,4.2,23.2-5,27.9c-2.9,1.5-6.4,2.2-10.1,1.8C189.6,77,183,64.7,176.9,52.2
	C179.3,50.6,181.8,49,184.5,47.6z M518.1,133c15.2,13.5,34.1,12.6,46.8-1.7s11.7-32.2-3.5-45.8s-34.1-12.6-46.8,1.7
	C501.8,101.6,502.8,119.5,518.1,133z M528.7,97.2c10-11.2,19.3-11.3,25.9-5.4c7,6.2,7.3,17.1-3.8,29.5c-10,11.2-19.4,11.2-25.9,5.4
	C517.8,120.5,517.6,109.7,528.7,97.2z M89,455c-2.5-4.5-4.2-8.4-5.6-12.4c-2-5.9-2.6-9.8-4.4-15.3C71.7,406,53.5,398,36.3,403.8
	c-16.1,5.4-25.2,19.4-18.1,40.7c2.3,7,4.9,11,8.7,22.3c1.2,3.7,2.1,6.7,3,10.1c2.4-4.6,5.3-7.4,15.2-11.7c8.1-3.5,16.2-6.7,24.6-9.4
	C79.7,452.6,83.2,452.8,89,455z M31.3,453.1c-1.2-2.7-2.4-5.3-3.4-8.2c-3.8-11.3,2.7-21,15.5-25.3c12.7-4.3,23.5-0.7,26.8,9.1
	c1,3.1,1.3,6.6,0.3,10.2C57.7,444.2,44.6,448.9,31.3,453.1z M69.6,162.3c5.9,7.3,13.5,17.9,20.6,28.8c2.7,4,4.9,8.4,6.5,13
	c3.2-6.5,7.3-12.5,11.5-17.1c-4.7-0.8-8.8-2.6-13.6-8.6c3.8-5.7,7.7-11.2,11.9-16.5c7.8,2.7,11,6.3,11.7,11.4
	c4.6-8.2,9.9-14.8,16-21c-4-0.2-7.9-0.8-11.7-1.7c-18.2-4.5-36.6-10-54.7-16.3c-2.7,6-6.4,12.5-11.5,19.4
	C60.6,153.8,64.7,156.1,69.6,162.3z M97.6,159.1c-2.9,4-5.7,7.9-8.5,12l-14.4-19L97.6,159.1z M263.8,27.5
	C262,16.8,269,6.8,284.9,4.1c6.4-1.1,9.7-0.6,13.3-1.2c2.5-0.4,3.7-1,5.6-2c-0.8,4.6-1.1,11.4,0.8,19.3l-1.1,0.4
	c-3.5-6-9.3-8.5-17.2-7.2c-6.9,1.1-9.7,4.7-9,8.7c0.5,3.2,2.3,4.9,7.7,5.9l9.1,1.6c10.6,1.9,15.3,6.8,16.7,15.1
	c1.8,11-5.9,21.2-21.9,23.8c-6.4,1.1-9.5,0.3-19,2.1c1.7-6.3,1.3-12.3-1.1-19.6l1.2-0.5c4.6,7.6,11,9.8,18.8,8.5
	c6.7-1.1,9.1-4.6,8.4-8.8c-0.5-3.1-2.5-5-7.4-5.9l-9.4-1.7C269.8,41,265.1,35.8,263.8,27.5z M317.3,32.5
	c0.4-19.1,14.1-32.3,34.2-31.9c6.9,0.1,11.1,1.6,15.3,1.7c1.7,0,3-0.1,5-0.7c-3.2,6.4-4.6,11.9-4.1,19.9l-1.2,0.1
	c-3.2-7.8-7.4-11.8-15.3-12c-9.8-0.2-16.9,6.8-17.2,20.8c-0.3,16.2,8.1,23.9,19,23.9c6.8,0.1,11.5-2.4,15.2-8.7l1,0.4
	c-0.8,3-1.8,5.9-2.8,8.5c-1.7,4.5-3.1,6.4-6.1,7.8c-2.8,1.4-6.1,2.1-10.6,2.1C330.1,64.5,316.9,52.7,317.3,32.5z M249.3,54.4
	l-12.8-6.8l6.8-12.8l12.8,6.8L249.3,54.4z M1.4,309.5c2.3-9,3.4-18.3,3.4-27.6c4.4,5.2,7.7,6.6,18.3,8.3c8.6,1.4,17.1,2.5,25.7,3.5
	c9.5,1.1,12.4,0.8,18.6-2.7c-2.3,8.1-3.3,16.4-3.1,24.8c-5.1-4.8-7.8-5.8-17.4-7.1c-8.6-1.1-17.1-2.1-25.8-2.9
	C10.4,305,6.9,305.5,1.4,309.5z M264.4,647.4c-2.1,9.6-2,13.2,0.1,18.7c-7.6-3.1-16.6-5.6-24.6-6.3c4.5-3.8,6.1-7.2,9.2-16.6
	c2.6-7.8,4.8-15.8,6.7-23.8c2-8.5,0.4-12.5-3.9-15.9l0.5-1.3c9.2,1.9,17.4,2.1,25.4,1.4c-3.3,6.6-4.6,10.4-7.6,20.9
	C267.9,632.2,266,639.8,264.4,647.4z M20.6,329.5l10.3-10.3l10.3,10.3l-10.3,10.3L20.6,329.5z M232.6,614.8l6,13.2l-13.2,6l-6-13.2
	L232.6,614.8z M227.8,589c-8.4-3.3-16.3-7.5-24.7-13.4c1.7,7.1,1.7,11-3.1,20.1c-0.8,1.6-1.7,3.3-2.7,4.9c-2.6-1.6-5.2-3.2-7.9-4.7
	c0.3-7.2,0.4-14.4-0.1-21c-0.4-6.6-2.2-9.3-7.7-12.5c-2.8-1.6-6.6-3.6-9.7-5.7c-7.1-4.9-13.2-10.7-19-17.3c0,7-1.6,10.8-8.3,18.3
	c-2,2.2-3.9,4.5-5.9,6.7c-6.9-6.2-13.4-12.5-19.9-19.1c2.1-2.1,4.2-4,6.4-6.2c7.2-6.9,10.9-8.7,17.9-9.1
	c-7.4-5.9-13.6-12.3-19.1-19.5c-0.7,7.3-2.2,10.3-9.4,17.7c-6.1,6.2-12,11.7-18,17.1c-7.6,6.9-11.4,8.9-17.4,9.5
	c7.2,6,14.2,13.1,18.8,19.3c-0.2-5.8,2-9.6,9.2-17.1c1.7-1.7,3.4-3.6,5.1-5.2c6.6,6.5,13.4,13,20.2,19.3c-1.6,1.8-3.3,3.6-5,5.4
	c-7.1,7.5-10.9,9.9-16.7,9.9c6.4,4.4,13.8,11.1,20.1,18c0.3-6,2.2-9.9,8.7-17.8c5.2-6.2,10.3-12.4,16.3-18.7s9-8.5,14.2-9.5
	c1,1.6,1.7,4.1,2.4,8.8c1.3,9.8,1.9,18.3,2.1,26.7c-9.5-1.1-15.4,2.3-18.6,7.8c-4.7,8.1-2.7,18.2,12.4,27
	c7.4,4.3,13.1,6.2,20.9,10.8c2.7,1.6,5.4,3.3,8,5.1c-1.1-5.9-0.2-10.1,4.3-19.4c3.6-7.4,7.3-14.7,11.6-22.3
	C218.5,594,221,591.7,227.8,589z M187.6,618.4c-2,3.4-3.6,5.9-5.2,7.8c-1.8-0.7-3.7-1.7-5.5-2.7c-7.4-4.3-9.1-10.3-5.6-16.4
	c3.4-5.9,9.5-6.7,15.6-3.1c2.1,1.2,4.3,2.7,6.3,4.4C191.4,611.7,189.6,615,187.6,618.4z M97.3,528.3c16.2-10.3,20.1-27.8,9.3-44.9
	c-10.9-17.2-29.3-21.5-45.5-11.3C44.9,482.3,41,499.8,51.8,517C62.7,534.2,81.2,538.5,97.3,528.3z M60.1,512.9
	c-5-7.9-2.3-18.4,11.8-27.3c12.7-8,21.7-5.5,26.4,1.9c5,8,2.3,18.4-11.8,27.3C73.8,522.8,64.8,520.3,60.1,512.9z M90.6,109.2l-1-1.2
	c6-4.7,10.5-9.7,14.2-14.5c16.3,1.6,32.5,2.8,48.9,3.5c-3-3.8-6.1-7.4-9.2-11c-6.1-7.1-10.3-9.4-19-9.8c8.9-5.2,14.6-9.8,19.4-15.3
	c0.8,5.8,2.9,10.3,9.2,18.5c8.7,11.4,17.4,22.7,26.3,33.8l-1,1.3c-19.4-2-39-3.4-58.6-4.2c4.2,4.8,8.5,9.4,13,13.9
	c8.6,8.9,13.3,10.1,20.4,10.5c-7.6,5.5-13.1,10.7-18.5,17.1c-0.3-6.6-1.9-10.9-9.5-19.4c-4.9-5.4-10-10.7-14.7-15.5
	C101.8,107.9,96.5,106.2,90.6,109.2z"/>
</svg>
